Patient4_TMGait_0pt4_01_right_20_EMG.mot
version=1
nRows=33
nColumns=33
inDegrees=no
endheader
time	1LAddLong	2LGlutMax	3LGlutMed	4LIliopsoas	5LSemiMemb	6LBicFemLong	7LRecFem	8LVastMed	9LVastLat	10LGasMed	11LTibAnt	12lTibPost	13LPeroneusLong	14LSol	15LExtDigLong	16LFlexDigLong	17RAddLong	18RGlutMax	19RGlutMed	20RIliopsoas	21RSemiMemb	22RBicFemLong	23RRecFem	24RVastMed	25RVastLat	26RGasMed	27RTibAnt	28RTibPost	29RPeroneusLong	30RSol	31RExtDigLong	32RFlexDigLong
25.75	0.010071	-0.061798	0.023804	0.007629	0.035248	0.046692	0.074158	-0.014038	-0.19913	0.13794	0.058441	0.1033	0.50171	-0.17425	-0.044556	0.008392	-0.000305	0.1889	0.003815	-0.32166	0.16968	-0.092773	0.52551	0.020294	0.045166	0.008545	0.6218	0.004578	-0.11505	0.027924	-0.002441	-0.001373
25.751	0.010681	-0.005493	-0.029907	-0.014954	0.023804	0.024109	0.10941	-0.021362	-0.32501	0.098267	0.012512	0.11581	-0.13641	0.14603	-0.051422	-0.001373	0.083923	0.25223	-0.010071	-0.31174	0.14328	-0.091705	0.39932	0.027771	0.053253	-0.000916	0.44342	0.002441	-0.078888	0.023804	-0.001373	-0.008698
25.752	0.009003	-0.082703	0.023651	-0.00946	0.012817	0.032654	0.06134	-0.009766	-0.26779	-0.003815	-0.033875	-0.11932	-0.11307	0.29938	-0.058746	0.010834	0.072632	0.22537	0.18173	-0.1149	0.13504	-0.059814	0.25314	0.032959	0.074158	-0.010376	0.35904	-0.00473	-0.065155	0.11643	-0.00061	-0.018616
25.753	0.006714	-0.078735	-0.039673	-0.028687	0.010529	0.023651	-0.002594	-0.005951	-0.23743	0.006409	0.002289	0.000153	-0.72479	0.09552	-0.19073	-0.007019	0.03891	0.18845	0.29037	-0.046387	0.14465	-0.052185	0.13351	0.004425	0.057373	-0.012054	0.13687	0.000763	-0.093994	0.15228	-0.00473	-0.012207
25.754	0.00946	-0.061188	-0.045929	-0.02655	-0.000153	-0.000458	0.028534	-0.006409	-0.13107	0.029602	0.00824	-0.010376	-0.47043	-0.17578	-0.16708	-0.00351	0.027466	0.23987	0.25665	-0.055695	0.14877	-0.040436	0.077209	-0.002136	0.058899	-0.008698	0.036316	0.001068	-0.05661	0.13626	-0.003204	-0.009155
25.755	0.011444	-0.053253	-0.12695	-0.012817	-0.002136	-0.012817	0.036163	-0.00412	-0.085144	-0.043335	0.02243	-0.000153	-0.063477	-0.23453	0.075226	0.003815	0.010834	0.28397	-0.005646	0.040741	0.15091	-0.062408	0.078125	0.002441	0.055084	-0.013123	-0.004425	-0.006561	0.071106	0.086823	-0.001831	-0.013733
25.756	0.001831	-0.040894	-0.068054	0.015259	-0.005493	-0.025482	0.041199	-0.000916	-0.063171	-0.016937	0.005493	0.006866	-0.17746	-0.1564	-0.019226	-0.007782	-0.011902	0.26947	0.12573	0.03952	0.18127	-0.039978	0.12024	0.026245	0.055237	-0.020905	0.21378	0.000458	0.10178	0.04364	-0.003204	-0.015564
25.757	0.003357	-0.041504	0.008545	0.014343	0.003204	-0.022278	0.025635	-0.001068	0.002899	0.010071	-0.003662	0.005188	-0.090179	0.17425	-0.11688	-0.002136	-0.015564	0.2478	0.26947	0.083466	0.17303	-0.023956	0.046082	0.050201	0.047913	-0.014648	0.48553	0.001221	-0.008392	0.055084	-0.003967	-0.009155
25.758	-0.008087	-0.027161	-0.073853	0.012207	-0.027161	-0.017242	0.034332	-0.00412	0.027466	0.016174	0.00824	0.015411	0.067291	0.2504	-0.011444	0.001221	0.018921	0.21515	0.1471	0.059814	0.15228	-0.035248	-0.086365	0.015106	0.034485	-0.011292	0.60379	-0.00061	-0.36713	0.015564	-0.006561	-0.00885
25.759	-0.005035	-0.014191	-0.041046	0.004883	-0.039978	-0.02243	0.075684	0.009308	0.001831	0.01236	0.005798	-0.002289	-0.69946	0.15198	0.037537	-0.003967	0.05188	0.27756	0.14648	0.071259	0.14984	-0.058746	0.030823	-0.020294	0.055695	-0.00824	0.46829	-0.000763	-0.17181	0.022125	-0.007782	-0.013123
25.76	0.006866	-0.007782	0.063782	-0.007324	-0.011139	-0.005035	0.10086	0.007477	-0.019531	0.00946	-0.006866	0.00412	-0.16098	0.079651	0.03891	0.001831	0.095367	0.27618	0.19241	0.075684	0.13718	-0.084839	0.13351	-0.016937	0.028839	-0.006561	-0.32227	0.000916	-0.045166	-0.031433	-0.003662	-0.004425
25.761	0.013428	-0.030365	-0.046387	0.01358	0.007019	0.04364	0.11444	0.003052	-0.028687	0.025787	-0.053406	0.005646	0.49271	0.11459	0.1059	0.00946	0.082397	0.24368	0.30777	0.04715	0.12848	-0.092163	0.1593	-0.04715	0.003815	-0.007782	-0.64087	0.002136	-0.025787	-0.10941	0.000153	-0.003662
25.762	0.003357	-0.046844	0.08255	0.00946	0.005188	0.083618	0.12726	-0.009155	-0.031128	0.02533	-0.00061	-0.001526	0.47028	0.15411	0.10986	-0.063171	0.051727	0.2153	0.37399	-0.024567	0.12802	-0.085754	0.2124	-0.077057	0.039063	-0.009003	-0.20477	0.000916	0.16953	-0.17517	-0.006714	-0.001984
25.763	-0.010529	0.022278	0.097961	0.010681	0.001678	0.069122	0.094147	-0.000916	-0.041809	0.084076	0.046387	-0.005646	0.54565	0.28137	0.05127	0.003204	0.01358	0.24521	0.28137	-0.12177	0.11398	-0.078583	0.29938	-0.092621	0.015106	-0.000153	0.13016	-0.002136	0.21668	-0.18463	-0.00351	0
25.764	0.005798	0.009308	-0.040741	0.027161	0.009308	0.004425	0.030212	-0.006866	-0.028381	0.10284	0.056152	-0.008392	0.62378	0.30045	-0.050354	0.043182	-0.039215	0.28458	0.18875	-0.16541	0.11658	-0.087585	0.22324	-0.085754	0.029144	-0.005188	0.42145	0.000458	-0.21072	-0.14465	-0.001373	0.002899
25.765	0.00412	0.051422	0.003662	-0.005493	-0.010376	-0.031586	0.12085	-0.006561	-0.036469	0.08194	0.059509	-0.001221	0.49469	0.31982	-0.03418	-0.14114	-0.1059	0.29724	0.074921	-0.15381	0.12329	-0.074463	0.12466	-0.049591	0.02121	-0.006409	0.3685	-0.006561	0.12314	-0.015869	-0.001984	0.004272
25.766	0.007782	0.11322	0.075531	-0.024261	-0.028381	-0.02655	0.15137	0.023651	-0.062561	-0.08667	-0.002136	-0.016785	-0.82138	0.44495	0.16083	0.24094	-0.092926	0.26016	0.39352	-0.058136	0.12985	-0.07019	0.0177	-0.035248	0.024414	-0.00824	-0.028992	0	0.46631	0.077667	-0.001984	0.00473
25.767	0.005951	0.12878	0.15717	-0.021362	0.026855	0.034943	0.16876	0.021362	-0.087433	-0.24307	-0.000458	-0.016022	-1.1388	0.25589	0.10315	0.19821	-0.062561	0.32044	0.46753	0.045319	0.13916	-0.061493	-0.01358	0.047455	0.012512	-0.006714	-0.28793	-0.001984	0.061951	0.1181	-0.003662	0.002441
25.768	-0.004578	0.042572	0.18433	-0.018311	0.076447	0.15656	0.15381	0.034637	-0.088348	-0.3627	-0.03479	-0.00061	-0.093842	-0.001831	-0.072327	-0.12634	-0.01358	0.25635	0.37521	-0.03418	0.15106	-0.076599	0.14999	0.022736	0.017395	-0.001678	-0.20371	0.00061	-0.27191	0.090332	0.001221	-0.002747
25.769	-0.004272	-0.002441	0.080719	-0.014801	0.061951	0.16342	0.06073	0.032501	-0.06012	-0.045624	-0.008698	0.015259	-0.038147	-0.24551	-0.159	-0.099945	-0.016174	0.19104	-0.012665	-0.019531	0.14389	-0.089264	0.057068	0.01236	0.012512	-0.007324	-0.32105	-0.001526	-0.45044	0.093079	-0.000458	-0.006256
25.77	-0.003815	0.078278	0.13718	0.003967	0.033112	0.13123	-0.048981	0.055542	-0.043945	-0.00824	0.014648	0.007477	-0.14862	-0.21896	-0.069733	-0.03418	-0.032043	0.21988	-0.10422	0.08316	0.13489	-0.083008	0.022125	-0.059357	0.008545	-0.007629	-0.28778	-0.003815	-0.45075	0.019989	-0.002136	-0.019836
25.771	-0.003815	0.099945	0.20493	-0.013123	0.030975	0.12466	-0.040131	0.060577	0.020447	0.023956	-0.031738	0.014954	-0.020752	-0.33356	-0.039673	-0.019379	-0.061188	0.27222	-0.030975	0.23407	0.13229	-0.09613	0.042877	-0.026245	0.017548	-0.005188	-0.55634	-0.000763	-0.24414	-0.032959	-0.003662	-0.008545
25.772	0.014954	0.062714	0.15152	0.034485	0.036316	0.10971	-0.010071	0.062408	0.12955	0.082092	0.007477	0.018768	-0.04303	-0.39368	-0.032959	-0.041656	-0.016174	0.20554	-0.04364	0.29526	0.12039	-0.112	0.11887	-0.06424	0.010681	0.00473	-0.40695	-0.001373	-0.018616	-0.10483	-0.009003	-0.006256
25.773	0.019073	0.00061	0.22125	0.017395	0.003815	0.13031	-0.080719	0.026245	0.15274	0.085907	0.019379	0.011139	-0.068512	-0.1828	0.33859	0.001678	0.03418	0.19867	0.17273	0.11429	0.10696	-0.13199	0.11932	-0.11734	-0.005341	0.005493	-0.023499	0.000305	-0.18585	-0.18784	-0.000916	-0.004272
25.774	0.016632	-0.002136	0.069122	-0.020752	0.006714	0.029297	-0.15121	0.018005	0.1207	0.035706	-0.036926	-0.004883	0.07309	-0.16159	-0.11078	0.024567	0.028076	0.18387	0.11673	-0.096893	0.095978	-0.15778	0.14328	-0.082092	0.002136	0.005341	-0.055847	-0.001984	-0.14206	-0.21362	-0.001831	0.009155
25.775	0.012817	0.005951	0.04776	-0.028687	0.001068	-0.013275	-0.079193	-0.010986	0.098877	-0.023193	-0.11353	-0.010681	0.048981	-0.094452	0.17654	0.028992	0.077209	0.13016	0.12405	-0.19272	0.0914	-0.15167	0.13077	-0.009308	-0.018463	0.002747	0.20309	0	-0.005188	-0.18539	-0.004883	0.002289
25.776	-0.00473	-0.015259	-0.093079	-0.01297	0.012665	0.024414	0.036469	-0.024261	0.030518	-0.0177	-0.11581	-0.004425	0.041656	0.078583	-0.21027	0.008087	0.15961	0.11368	0.13397	-0.15091	0.085449	-0.14618	0.066986	-0.023804	0.00351	-0.005341	-0.044708	-0.002136	0.49088	-0.21042	-0.003204	0.000305
25.777	-0.018921	-0.093842	-0.18753	0.002747	-0.03479	-0.077362	0.061798	-0.014801	0.036469	-0.02243	-0.019684	0.001526	-0.11093	0.11673	-0.20432	0.003967	0.19241	0.12924	0.24338	-0.027618	0.071259	-0.13641	0.13016	-0.018616	0.023651	-0.003357	-0.081177	-0.002594	0.38925	-0.13367	-0.007935	0.001221
25.778	0.03418	-0.10284	-0.26459	0.009766	-0.09613	-0.31097	0.09201	-0.010834	0.015717	-0.045776	0.050507	0.001831	-0.076294	-0.10513	-0.018921	0.008087	0.1091	0.13886	0.20233	-0.086517	0.050659	-0.13733	0.26428	0.042572	0.023499	-0.006714	0.33295	-0.002441	0.22415	-0.015564	-0.005341	0.002594
25.779	-0.027466	-0.20416	-0.21118	-0.028381	-0.11078	-0.11627	0.084534	-0.00946	0.030365	-0.04303	0.093384	0.005951	0.32547	0.00885	-0.17319	0.006409	-0.019379	0.13123	0.23727	-0.18555	0.04837	-0.12131	0.26459	0.046234	0.015564	-0.006561	0.49393	-0.002594	0.18509	-0.11185	-0.00351	0.006256
25.78	-0.010529	-0.27954	-0.21179	0.015869	-0.087585	0.03067	0.06134	-0.021973	0.044708	-0.03067	0.069427	-0.002747	0.054016	0.10346	-0.31601	-0.00061	-0.050201	0.10208	0.16525	-0.17746	0.050049	-0.10803	0.067902	0.031586	0.004272	-0.014343	0.046997	-0.002747	0.019226	-0.026703	-0.001068	0.004578
25.781	-0.013733	-0.27725	-0.1535	0.029602	0.075226	0.091248	0.067596	-0.019073	0.033112	-0.02655	0.067749	0.008698	-0.022125	0.12512	-0.17731	0.004883	-0.040436	0.09491	0.2475	-0.10971	0.042572	-0.14694	-0.10468	-0.021667	-0.000916	-0.0177	-0.29755	0.003052	-0.023499	0.045166	-0.00061	0.005951
25.782	-0.000916	-0.31082	-0.049591	0.00473	0.097809	0.11185	0.013733	-0.003662	0.053406	-0.0737	0.024414	0.007172	0.36941	0.18982	-0.019226	0.001068	-0.068054	0.11551	0.39215	-0.11749	0.03418	-0.16998	-0.11749	0.004425	0.006409	-0.001526	-0.5777	-0.002594	0.14801	0.065918	-0.000916	0.004883
